<svg width="33" height="33" viewBox="0 0 33 33" fill="none" xmlns="http://www.w3.org/2000/svg">
<g clip-path="url(#clip0_48_91)">
<path d="M25.3786 9.35001H24.2833L22.0126 3.09887C21.8246 2.58342 21.4831 2.13802 21.034 1.82275C20.585 1.50747 20.0501 1.33749 19.5014 1.33572H17.3643C16.6296 1.33572 16.0286 1.9368 16.0286 2.67144C16.0286 3.40608 16.6296 4.00715 17.3643 4.00715H19.5014L21.4516 9.35001H15.0268L14.5459 8.0143H14.6661C15.4008 8.0143 16.0019 7.41322 16.0019 6.67858C16.0019 5.94394 15.4008 5.34287 14.6661 5.34287H10.6857C9.95107 5.34287 9.35 5.94394 9.35 6.67858C9.35 7.41322 9.95107 8.0143 10.6857 8.0143H11.6875L14.1185 14.6929H13.2236C12.6359 11.7142 10.1381 9.51029 7.0125 9.36337C3.2725 9.17637 0 12.2886 0 16.0286C0 19.7686 2.93857 22.7072 6.67857 22.7072C9.96443 22.7072 12.6225 20.4498 13.2236 17.3643H18.8336C19.4213 20.3429 21.9191 22.5469 25.0446 22.6938C28.7846 22.8674 32.0571 19.7686 32.0571 16.0152C32.0571 12.2886 29.1186 9.35001 25.3786 9.35001ZM8.01429 17.3643H10.4453C9.88429 19.0072 8.30814 20.1426 6.41143 20.0224C4.42121 19.9022 2.76493 18.2192 2.67143 16.2156C2.57793 13.8781 4.36779 12.0214 6.67857 12.0214C8.45507 12.0214 9.911 13.1301 10.4453 14.6929H8.01429C7.27964 14.6929 6.67857 15.2939 6.67857 16.0286C6.67857 16.7632 7.27964 17.3643 8.01429 17.3643ZM18.8336 14.6929H16.9636L15.9885 12.0214H20.0357C19.448 12.7962 19.0206 13.6911 18.8336 14.6929ZM25.2183 20.0357C23.1613 19.9556 21.4249 18.2058 21.3714 16.1354C21.3447 14.8532 21.8924 13.7312 22.7739 12.9832L23.6021 15.2539C23.8559 15.9484 24.6172 16.3091 25.3118 16.0553C26.0064 15.8015 26.367 15.0402 26.1132 14.3456L25.2717 12.0348L25.2851 12.0214C25.8206 12.0032 26.3543 12.0936 26.8539 12.2873C27.3535 12.4811 27.8087 12.774 28.1919 13.1485C28.5751 13.523 28.8785 13.9713 29.0837 14.4663C29.2889 14.9613 29.3916 15.4928 29.3857 16.0286C29.3857 18.326 27.5424 20.1159 25.2183 20.0357ZM14.6929 26.7143H9.35L17.3643 30.7214V28.05H22.7071L14.6929 24.0429V26.7143Z" fill="url(#paint0_linear_48_91)"/>
</g>
<defs>
<linearGradient id="paint0_linear_48_91" x1="16.0286" y1="1.33572" x2="16.0286" y2="30.7214" gradientUnits="userSpaceOnUse">
<stop stop-color="#FFBB00"/>
<stop offset="1" stop-color="#F2A60C"/>
</linearGradient>
<clipPath id="clip0_48_91">
<rect width="32.0571" height="32.0571" fill="white"/>
</clipPath>
</defs>
</svg>
