<svg width="33" height="33" viewBox="0 0 33 33" fill="none" xmlns="http://www.w3.org/2000/svg">
<path d="M16.0283 10.6857C13.0764 10.6857 10.6854 13.0766 10.6854 16.0286C10.6854 18.9805 13.0764 21.3714 16.0283 21.3714C18.9802 21.3714 21.3712 18.9805 21.3712 16.0286C21.3712 13.0766 18.9802 10.6857 16.0283 10.6857ZM27.9696 14.6928C27.667 11.9842 26.4524 9.45889 24.5252 7.53166C22.598 5.60444 20.0727 4.38982 17.364 4.08726V2.67141C17.364 1.93676 16.7629 1.33569 16.0283 1.33569C15.2937 1.33569 14.6926 1.93676 14.6926 2.67141V4.08726C11.9839 4.38982 9.45865 5.60444 7.53142 7.53166C5.60419 9.45889 4.38958 11.9842 4.08702 14.6928H2.67116C1.93652 14.6928 1.33545 15.2939 1.33545 16.0286C1.33545 16.7632 1.93652 17.3643 2.67116 17.3643H4.08702C4.38958 20.0729 5.60419 22.5982 7.53142 24.5254C9.45865 26.4527 11.9839 27.6673 14.6926 27.9698V29.3857C14.6926 30.1203 15.2937 30.7214 16.0283 30.7214C16.7629 30.7214 17.364 30.1203 17.364 29.3857V27.9698C20.0727 27.6673 22.598 26.4527 24.5252 24.5254C26.4524 22.5982 27.667 20.0729 27.9696 17.3643H29.3854C30.1201 17.3643 30.7212 16.7632 30.7212 16.0286C30.7212 15.2939 30.1201 14.6928 29.3854 14.6928H27.9696ZM16.0283 25.3785C10.8591 25.3785 6.67831 21.1978 6.67831 16.0286C6.67831 10.8593 10.8591 6.67855 16.0283 6.67855C21.1975 6.67855 25.3783 10.8593 25.3783 16.0286C25.3783 21.1978 21.1975 25.3785 16.0283 25.3785Z" fill="url(#paint0_linear_48_145)"/>
<defs>
<linearGradient id="paint0_linear_48_145" x1="16.0283" y1="1.33569" x2="16.0283" y2="30.7214" gradientUnits="userSpaceOnUse">
<stop stop-color="#FFBB00"/>
<stop offset="1" stop-color="#F2A60C"/>
</linearGradient>
</defs>
</svg>
