<svg width="33" height="33" viewBox="0 0 33 33" fill="none" xmlns="http://www.w3.org/2000/svg">
<path d="M22.7076 22.6938C20.9044 22.6938 19.769 23.2548 18.7672 23.7623C17.899 24.2031 17.1911 24.5638 16.029 24.5638C14.8269 24.5638 14.159 24.2298 13.2908 23.7623C12.289 23.2548 11.1937 22.6938 9.35045 22.6938C7.50716 22.6938 6.41188 23.2548 5.41009 23.7623C4.83573 24.0562 4.32816 24.31 3.71373 24.4569C3.11266 24.5905 2.67188 25.0713 2.67188 25.6724V25.806C2.67188 26.6074 3.41988 27.1818 4.19459 27.0215C5.18302 26.8211 5.93102 26.4471 6.61223 26.0998C7.48045 25.6591 8.17502 25.2984 9.35045 25.2984C10.5259 25.2984 11.2204 25.6323 12.0887 26.0998C13.0904 26.6074 14.1857 27.1684 16.029 27.1684C17.8723 27.1684 18.9676 26.6074 19.9694 26.0998C20.8376 25.6591 21.5455 25.2984 22.7076 25.2984C23.9097 25.2984 24.5776 25.6323 25.4458 26.0998C26.1404 26.4471 26.8884 26.8345 27.8902 27.0348C28.0706 27.0701 28.2566 27.0652 28.435 27.0207C28.6133 26.9761 28.7798 26.8929 28.9225 26.777C29.0651 26.6611 29.1806 26.5152 29.2608 26.3497C29.3409 26.1842 29.3837 26.0032 29.3862 25.8193V25.6991C29.3862 25.0847 28.932 24.6038 28.3309 24.4703C27.7165 24.3367 27.2223 24.0829 26.6479 23.7757C25.6462 23.2548 24.5108 22.6938 22.7076 22.6938ZM22.7076 16.7498C20.9044 16.7498 19.769 17.3242 18.7672 17.8184C17.899 18.2458 17.1911 18.6198 16.029 18.6198C14.8269 18.6198 14.159 18.2859 13.2908 17.8184C12.289 17.3108 11.1937 16.7498 9.35045 16.7498C7.50716 16.7498 6.41188 17.3242 5.41009 17.8184C4.83573 18.0989 4.32816 18.3661 3.70037 18.513C3.11266 18.6466 2.67188 19.1274 2.67188 19.7285V19.8621C2.67195 20.0467 2.71318 20.229 2.79256 20.3956C2.87194 20.5623 2.98747 20.7092 3.13076 20.8256C3.27404 20.9421 3.44148 21.0251 3.62088 21.0687C3.80029 21.1122 3.98715 21.1153 4.16787 21.0776C5.16966 20.8772 5.91766 20.4898 6.61223 20.1559C7.48045 19.6884 8.1483 19.3545 9.35045 19.3545C10.5526 19.3545 11.2204 19.6884 12.0887 20.1559C13.0904 20.6635 14.1857 21.2245 16.029 21.2245C17.8723 21.2245 18.9676 20.6501 19.9694 20.1559C20.8376 19.6884 21.5054 19.3545 22.7076 19.3545C23.9097 19.3545 24.5776 19.6884 25.4458 20.1559C26.1404 20.5032 26.8884 20.8906 27.8902 21.0909C28.0717 21.1263 28.2588 21.1212 28.4382 21.0759C28.6175 21.0306 28.7846 20.9462 28.9276 20.8288C29.0705 20.7114 29.1857 20.5638 29.265 20.3967C29.3443 20.2296 29.3856 20.047 29.3862 19.8621V19.7418C29.3862 19.1274 28.932 18.6466 28.3309 18.513C27.7165 18.3794 27.2223 18.1256 26.6479 17.8184C25.6462 17.3108 24.5108 16.7498 22.7076 16.7498ZM26.6479 5.95727C25.6462 5.4497 24.5375 4.8887 22.7076 4.8887C20.8777 4.8887 19.769 5.4497 18.7672 5.95727C17.899 6.3847 17.1911 6.7587 16.029 6.7587C14.8269 6.7587 14.159 6.42477 13.2908 5.95727C12.289 5.46306 11.1937 4.8887 9.35045 4.8887C7.50716 4.8887 6.41188 5.4497 5.41009 5.95727C4.83573 6.25113 4.32816 6.50492 3.71373 6.65185C3.11266 6.78542 2.67188 7.26627 2.67188 7.86735V7.96085C2.67188 8.76227 3.39316 9.34999 4.16787 9.1897C5.16966 8.98935 5.91766 8.60199 6.61223 8.26806C7.48045 7.82727 8.17502 7.46663 9.35045 7.46663C10.5259 7.46663 11.2204 7.80056 12.0887 8.26806C13.0904 8.77563 14.1857 9.33663 16.029 9.33663C17.8723 9.33663 18.9676 8.76227 19.9694 8.26806C20.8376 7.84063 21.5455 7.46663 22.7076 7.46663C23.9097 7.46663 24.5776 7.80056 25.4458 8.26806C26.1404 8.61535 26.8884 9.0027 27.8902 9.20306C28.0717 9.23848 28.2588 9.23335 28.4382 9.18804C28.6175 9.14272 28.7846 9.05835 28.9276 8.94094C29.0705 8.82353 29.1857 8.67599 29.265 8.50887C29.3443 8.34175 29.3856 8.15917 29.3862 7.9742V7.85399C29.3862 7.23956 28.932 6.7587 28.3309 6.62513C27.7165 6.49156 27.2223 6.25113 26.6479 5.95727ZM22.7076 10.8059C20.9044 10.8059 19.769 11.3803 18.7672 11.8745C17.899 12.342 17.2312 12.6759 16.029 12.6759C14.8269 12.6759 14.159 12.342 13.2908 11.8745C12.289 11.3669 11.1937 10.8059 9.35045 10.8059C7.50716 10.8059 6.41188 11.3803 5.41009 11.8745C4.83573 12.1817 4.34152 12.4355 3.72709 12.5691C3.12602 12.7026 2.67188 13.1835 2.67188 13.7979V13.9181C2.67195 14.1028 2.71318 14.285 2.79256 14.4517C2.87194 14.6184 2.98747 14.7653 3.13076 14.8817C3.27404 14.9981 3.44148 15.0812 3.62088 15.1247C3.80029 15.1683 3.98715 15.1713 4.16787 15.1336C5.16966 14.9333 5.91766 14.5459 6.61223 14.212C7.48045 13.7846 8.18837 13.4106 9.35045 13.4106C10.5125 13.4106 11.2204 13.7445 12.0887 14.212C13.0904 14.7196 14.1857 15.2806 16.029 15.2806C17.8723 15.2806 18.9676 14.7062 19.9694 14.212C20.8376 13.7846 21.5455 13.4106 22.7076 13.4106C23.9097 13.4106 24.5776 13.7445 25.4458 14.212C26.1404 14.5593 26.8884 14.9466 27.8902 15.147C28.0706 15.1822 28.2566 15.1774 28.435 15.1328C28.6133 15.0883 28.7798 15.0051 28.9225 14.8891C29.0651 14.7732 29.1806 14.6273 29.2608 14.4619C29.3409 14.2964 29.3837 14.1153 29.3862 13.9315V13.8113C29.3862 13.1968 28.932 12.716 28.3309 12.5824C27.7165 12.4488 27.2223 12.1951 26.6479 11.8878C25.6462 11.3669 24.5108 10.8059 22.7076 10.8059Z" fill="url(#paint0_linear_48_106)"/>
<defs>
<linearGradient id="paint0_linear_48_106" x1="16.029" y1="4.8887" x2="16.029" y2="27.1684" gradientUnits="userSpaceOnUse">
<stop stop-color="#FFBB00"/>
<stop offset="1" stop-color="#F2A60C"/>
</linearGradient>
</defs>
</svg>
