<svg width="16" height="16" viewBox="0 0 16 16" fill="none" xmlns="http://www.w3.org/2000/svg">
<path d="M12.667 4.667C12.667 3.934 12.067 3.334 11.334 3.334H10.001C9.63401 3.334 9.33401 3.634 9.33401 4C9.33401 4.367 9.63401 4.667 10.001 4.667H11.334V6.434L9.01401 9.334H6.66701V6.667C6.66701 6.3 6.36701 6 6.00101 6H4.00001C3.64974 5.99987 3.30287 6.06876 2.97924 6.20274C2.6556 6.33673 2.36154 6.53317 2.11386 6.78085C1.86618 7.02853 1.66974 7.32259 1.53575 7.64623C1.40177 7.96986 1.33288 8.31673 1.33301 8.667V10C1.33301 10.367 1.63301 10.667 2.00001 10.667H2.66601C2.66601 11.774 3.56001 12.667 4.66601 12.667C5.77301 12.667 6.66601 11.774 6.66601 10.667H9.01301C9.42001 10.667 9.80001 10.48 10.053 10.167L12.373 7.267C12.566 7.027 12.666 6.733 12.666 6.434V4.667H12.667ZM4.66701 11.334C4.49044 11.3332 4.32135 11.2626 4.1966 11.1377C4.07184 11.0128 4.00153 10.8436 4.00101 10.667H5.33401C5.33401 11.034 5.03401 11.334 4.66701 11.334Z" fill="#B3B3B3"/>
<path d="M12.6665 11.833H12.668C13.3111 11.833 13.835 11.3091 13.835 10.666C13.835 10.0234 13.3107 9.5 12.668 9.5C12.0254 9.5 11.501 10.0234 11.501 10.666L11.501 10.6675C11.5019 10.9763 11.625 11.2722 11.8434 11.4906C12.0618 11.709 12.3577 11.8321 12.6665 11.833ZM4.00001 4.5H6.00001C6.09087 4.5 6.16701 4.57614 6.16701 4.667C6.16701 4.75686 6.09086 4.833 6.00101 4.833H4.001C3.95658 4.83274 3.91404 4.81499 3.88259 4.78359C3.85129 4.75234 3.8335 4.71008 3.83301 4.66589C3.83363 4.57552 3.90952 4.5 4.00001 4.5ZM11.168 10.666C11.168 9.83598 11.8373 9.166 12.668 9.166C13.4987 9.166 14.168 9.83598 14.168 10.666C14.168 11.4969 13.4989 12.166 12.668 12.166C11.8371 12.166 11.168 11.4969 11.168 10.666Z" fill="white" stroke="#CCCCCC"/>
</svg>
